PathFileType	4	(X/Y/Z)	C:\Github\FootballMatch-and-Movement-Analysis\output\test Exam_2026-03-06_135002_tvc2_Sports2D\test Exam_2026-03-06_135002_tvc2_Sports2D_m_person00.trc
DataRate	CameraRate	NumFrames	NumMarkers	Units	OrigDataRate	OrigDataStartFrame	OrigNumFrames
30.0	30.0	7	22	m	30.0	0	516
Frame#	Time	Hip			RHip			RKnee			RAnkle			RBigToe			RSmallToe			RHeel			LHip			LKnee			LAnkle			LBigToe			LSmallToe			LHeel			Neck			Head			Nose			RShoulder			RElbow			RWrist			LShoulder			LElbow			LWrist			
		X1	Y1	Z1	X2	Y2	Z2	X3	Y3	Z3	X4	Y4	Z4	X5	Y5	Z5	X6	Y6	Z6	X7	Y7	Z7	X8	Y8	Z8	X9	Y9	Z9	X10	Y10	Z10	X11	Y11	Z11	X12	Y12	Z12	X13	Y13	Z13	X14	Y14	Z14	X15	Y15	Z15	X16	Y16	Z16	X17	Y17	Z17	X18	Y18	Z18	X19	Y19	Z19	X20	Y20	Z20	X21	Y21	Z21	X22	Y22	Z22
0	0.0	0.8067543366958055	0.8531788768916724	0.0301	0.7187559540906666	0.826295935116667	0.0301	0.710573013285663	0.4792986188400423	0.129	0.7150709068897445	0.14640421111057061	0.023	0.6928916009189746	0.03356516585905865	0.2179	0.6425596703738978	0.047136484785151284	0.1804	0.7383092847333542	0.10140550178371434	-0.0119	0.9025482249626999	0.8235295969400761	0.0301	0.9331487640639562	0.4798780410781609	0.129	0.9715279300210357	0.16608976656320865	0.023	0.9891546163815669	0.04593453884843236	0.2179	1.0355989584728145	0.060486304132917834	0.1804	0.9546968710325834	0.12291623284024668	-0.0119	0.79656678766623	1.4578072783975777	0.0008	0.7409099208244021	1.6862333830131706	0.0655	0.6600084749525781	1.5549644950116792	0.1076	0.6433180685062443	1.357266778869725	-0.01275	0.5059114302435893	1.1871646648751943	0.0702	0.6068891593544137	1.0250028713789796	0.1076	0.9877551675951463	1.3732927458809223	-0.01275	1.1517861162297263	1.1798446944970484	0.0702	1.0312480937607336	0.9916143990473758	0.1076
1	0.033398058252427185	0.8057769865693594	0.8550056215356454	0.0301	0.7162311742105015	0.829467083507854	0.0301	0.709623620687968	0.48104674671033504	0.129	0.7156114449108564	0.1463166622507385	0.023	0.6919903478377432	0.0317387630521665	0.2179	0.6431461380167209	0.045281994528191614	0.1804	0.7367924981622975	0.09983713330582837	-0.0119	0.9016442753642759	0.8268934696822232	0.0301	0.9320415930467604	0.4797514158432362	0.129	0.9708552347173942	0.16429899778742563	0.023	0.9882079820700638	0.04565697545141019	0.2179	1.0345440551865765	0.060074011423978356	0.1804	0.9538157482334494	0.12266599193953866	-0.0119	0.7939561793093788	1.458503131858531	0.0008	0.7387726406699828	1.6884088747624895	0.0655	0.6591303684351156	1.5551991464963928	0.1076	0.6425374937255569	1.3572330054454524	-0.01275	0.5051693526117492	1.1857366014542674	0.0702	0.6041786740522602	1.0253795945319308	0.1076	0.9868680960010814	1.3736125955538283	-0.01275	1.1514780116739813	1.1820202862436293	0.0702	1.0305975473116655	0.9916182732251276	0.1076
2	0.06679611650485437	0.8044398631947253	0.8570119640879741	0.0301	0.7140098501996467	0.8330176098497084	0.0301	0.7092308219522299	0.4820163374702676	0.129	0.7160405861716781	0.1474635196482048	0.023	0.6916750418176851	0.031191082841966554	0.2179	0.6446175820432393	0.044182799870203134	0.1804	0.7357640136668736	0.10059112132641063	-0.0119	0.9008229456804968	0.8295640217165122	0.0301	0.9309145375880479	0.4806876153660163	0.129	0.9706249928857237	0.16337474144384942	0.023	0.9874374261250518	0.045345793854574865	0.2179	1.0336709942058995	0.059940705288594145	0.1804	0.9544076186054222	0.12283167677073471	-0.0119	0.790383528884321	1.4591462588651298	0.0008	0.7343465628885117	1.6910382099434234	0.0655	0.6571960321640096	1.5554977557598124	0.1076	0.6405562972657639	1.3571897838559808	-0.01275	0.5037175383089347	1.1847676137125098	0.0702	0.6018334495347509	1.0257441060441141	0.1076	0.984315402857481	1.3749848287832271	-0.01275	1.1505353579551927	1.1845381284689098	0.0702	1.029450368671683	0.9921834421902038	0.1076
3	0.10019417475728155	0.8032938470682506	0.8584243694641807	0.0301	0.7130549917174981	0.8359138840483538	0.0301	0.7100538284483544	0.48133363941610396	0.129	0.7166215942695442	0.14954785458136677	0.023	0.69201647766759	0.03203543716728874	0.2179	0.6469792831151469	0.04422503546347656	0.1804	0.7364997729315785	0.10339196162330785	-0.0119	0.9004907045292988	0.8304381645397925	0.0301	0.9306879505330307	0.4826268555145665	0.129	0.970893958000515	0.1637898569900522	0.023	0.9872337947120785	0.0451317400883924	0.2179	1.0338532333385462	0.060498817196899195	0.1804	0.9566431866032834	0.12344192237330467	-0.0119	0.7866822072316311	1.4593318376374058	0.0008	0.7279018524128318	1.6932042879646603	0.0655	0.6542896983660677	1.5558716986795742	0.1076	0.6371381467874045	1.3576097560685414	-0.01275	0.5014152439232927	1.1843240658094942	0.0702	0.6007577709343728	1.025582452414515	0.1076	0.9803991397159578	1.3770779010447547	-0.01275	1.1482932437875935	1.186114315403981	0.0702	1.0276958523505837	0.9933957960188196	0.1076
4	0.13359223300970874	0.8026403409138213	0.858809315611892	0.0301	0.7131644587400844	0.8366811504549474	0.0301	0.7118000747929787	0.4798362133493226	0.129	0.7174981174367909	0.15093639813667972	0.023	0.6920094417295116	0.03223546526231295	0.2179	0.6492336754558969	0.04442977740063512	0.1804	0.7388465450752275	0.10505792612022145	-0.0119	0.9000398748787699	0.8300920831391561	0.0301	0.9317737710350356	0.48425075440576665	0.129	0.9714054516755113	0.1646891035494019	0.023	0.9870217310450125	0.04517659578552868	0.2179	1.0351595137646825	0.06155116995041554	0.1804	0.9586037593249688	0.12395784235262232	-0.0119	0.7836988152569897	1.4598525764559949	0.0008	0.7218862364495726	1.6941489128140834	0.0655	0.6510438236211147	1.556316718914906	0.1076	0.6328781587989512	1.3586849039985451	-0.01275	0.4988433121074202	1.1834312003243281	0.0702	0.600040849967074	1.0248406828798644	0.1076	0.9765742025787215	1.3786050658386497	-0.01275	1.1449161632084799	1.1861903698753018	0.0702	1.0255042625286155	0.9947891973719468	0.1076
5	0.16699029126213594	0.801950134414158	0.8585412941347242	0.0301	0.7130942879559041	0.8353921222163119	0.0301	0.713052116013338	0.47963120665781717	0.129	0.7180376784708421	0.15043494658636253	0.023	0.6909960831424676	0.03086181151746624	0.2179	0.6501700774185333	0.043815704066018646	0.1804	0.7411460625907462	0.10360214703816882	-0.0119	0.8985775803640864	0.8304462447885499	0.0301	0.9332212484937885	0.48486679124465026	0.129	0.97182085316537	0.164939795698213	0.023	0.9859331699064906	0.045822557878325496	0.2179	1.0361748628126917	0.062360582174213953	0.1804	0.9589338610000103	0.12429571065717064	-0.0119	0.7812622043735036	1.4614120454922448	0.0008	0.7180191796366067	1.6942530003422318	0.0655	0.6481948669702947	1.5564811390335023	0.1076	0.6290368652755272	1.3595422141938445	-0.01275	0.4964709471277899	1.1817467689323724	0.0702	0.597757393078933	1.0244687619526507	0.1076	0.9736776731289142	1.3790554208903905	-0.01275	1.1422065993964479	1.1859968113846135	0.0702	1.0235502650438353	0.9958840207956751	0.1076
6	0.2003883495145631	0.8011031400153937	0.8579272826094567	0.0301	0.712532579547019	0.8344172959447269	0.0301	0.7128999159207466	0.48106178658665444	0.129	0.718081181084067	0.1482850798974712	0.023	0.6897326498737618	0.029744417496165958	0.2179	0.6496212085327621	0.043687019757355325	0.1804	0.7426415025880082	0.1001060443615527	-0.0119	0.8972394979189677	0.8324140641037965	0.0301	0.9340133729306892	0.4849372401063658	0.129	0.9718326319007087	0.16456127481045407	0.023	0.9847222692356301	0.04740596406227546	0.2179	1.036088238386659	0.06273326934390114	0.1804	0.9585670295301123	0.12497342175929119	-0.0119	0.7789438256927601	1.462234259545543	0.0008	0.7157540936266906	1.69442061950764	0.0655	0.6468084604056004	1.5556303267694263	0.1076	0.6267795400696351	1.3596369308419027	-0.01275	0.4939475009390626	1.1805016804367765	0.0702	0.5946151456757581	1.0246013111760206	0.1076	0.9717706944731078	1.378996124139178	-0.01275	1.1415972241970653	1.1856862664966281	0.0702	1.022409330054868	0.9960152770173972	0.1076
